<svg width="60" height="60" viewBox="0 0 60 60" fill="none" xmlns="http://www.w3.org/2000/svg">
<g id="Edit / Figma" clip-path="url(#clip0_43_132)">
<path id="Vector" d="M22.5 37.5H30M22.5 37.5C18.3579 37.5 15 40.8579 15 45C15 49.1421 18.3579 52.5 22.5 52.5C26.6421 52.5 30 49.1421 30 45V37.5M22.5 37.5C18.3579 37.5 15 34.1421 15 30C15 25.8579 18.3579 22.5 22.5 22.5M30 37.5V30M22.5 22.5H30M22.5 22.5C18.3579 22.5 15 19.1421 15 15C15 10.8579 18.3579 7.5 22.5 7.5H30M30 22.5V30M30 22.5V7.5M30 22.5H37.5M30 30C30 34.1421 33.3579 37.5 37.5 37.5C41.6421 37.5 45 34.1421 45 30C45 25.8579 41.6421 22.5 37.5 22.5M30 30C30 25.8579 33.3579 22.5 37.5 22.5M30 7.5H37.5C41.6421 7.5 45 10.8579 45 15C45 19.1421 41.6421 22.5 37.5 22.5" stroke="#1E1E1E" stroke-width="4" stroke-linecap="round" stroke-linejoin="round"/>
</g>
<defs>
<clipPath id="clip0_43_132">
<rect width="60" height="60" fill="white"/>
</clipPath>
</defs>
</svg>
