<svg width="61" height="60" viewBox="0 0 61 60" fill="none" xmlns="http://www.w3.org/2000/svg">
<path fill-rule="evenodd" clip-rule="evenodd" d="M4.43115 0H55.5579C58.0078 0 60 1.93359 60.011 4.32404V55.676C60.011 58.0545 58.0188 60 55.5688 60H4.43115C1.9812 60 0 58.0545 0 55.6641V4.32404C0 1.93359 1.9812 0 4.43115 0ZM8.89526 51.1285H17.8015V22.4881H8.89526V51.1285ZM8.18115 13.4294C8.18115 6.32812 18.5046 6.32812 18.5046 13.4294C18.5046 20.5078 8.18115 20.2734 8.18115 13.4294ZM42.2351 51.129H51.1267V35.414C51.1267 27.7034 49.4641 21.7735 40.4517 21.7735C36.1267 21.7735 33.2227 24.1525 32.0398 26.4024H31.9226V22.4886H23.3899V51.129H32.2742V36.9727C32.2742 33.2346 32.9773 29.6132 37.6062 29.6132C42.1765 29.6132 42.2351 33.8905 42.2351 37.207V51.129Z" fill="#1E1E1E"/>
</svg>
