<svg width="62" height="60" viewBox="0 0 62 60" fill="none" xmlns="http://www.w3.org/2000/svg">
<path d="M30.7448 0C26.7074 0 22.7094 0.795238 18.9793 2.34031C15.2492 3.88538 11.8599 6.15003 9.00495 9.00495C3.23918 14.7707 0 22.5908 0 30.7448C0 44.334 8.82376 55.8633 21.0295 59.9524C22.5667 60.1983 23.0586 59.2452 23.0586 58.4151C23.0586 57.708 23.0586 55.7711 23.0586 53.2193C14.5423 55.064 12.7284 49.0995 12.7284 49.0995C11.3141 45.5331 9.31568 44.58 9.31568 44.58C6.5179 42.6738 9.53089 42.7353 9.53089 42.7353C12.6054 42.9505 14.2349 45.902 14.2349 45.902C16.9097 50.5752 21.4291 49.1917 23.1816 48.4538C23.4583 46.4554 24.2577 45.1026 25.1185 44.334C18.2932 43.5654 11.1296 40.9213 11.1296 29.2076C11.1296 25.7949 12.2979 23.0586 14.2963 20.8757C13.9889 20.1071 12.9128 16.9096 14.6038 12.7591C14.6038 12.7591 17.1864 11.929 23.0586 15.8951C25.4875 15.2187 28.1315 14.8805 30.7448 14.8805C33.3581 14.8805 36.0022 15.2187 38.431 15.8951C44.3033 11.929 46.8858 12.7591 46.8858 12.7591C48.5768 16.9096 47.5007 20.1071 47.1933 20.8757C49.1917 23.0586 50.36 25.7949 50.36 29.2076C50.36 40.9521 43.1657 43.5347 36.3096 44.3033C37.4164 45.2564 38.431 47.1318 38.431 49.9911C38.431 54.1109 38.431 57.4313 38.431 58.4151C38.431 59.2452 38.9229 60.2291 40.4909 59.9524C52.6966 55.8326 61.4896 44.334 61.4896 30.7448C61.4896 26.7073 60.6944 22.7094 59.1493 18.9793C57.6043 15.2491 55.3396 11.8599 52.4847 9.00495C49.6298 6.15003 46.2405 3.88538 42.5104 2.34031C38.7802 0.795238 34.7823 0 30.7448 0V0Z" fill="#1E1E1E"/>
</svg>
