<svg width="42" height="42" viewBox="0 0 42 42" fill="none" xmlns="http://www.w3.org/2000/svg">
<path d="M31.868 36.2756C29.1977 33.2933 25.318 31.4167 21 31.4167C16.682 31.4167 12.8019 33.2933 10.1317 36.2756M21 39.75C10.6447 39.75 2.25 31.3553 2.25 21C2.25 10.6447 10.6447 2.25 21 2.25C31.3553 2.25 39.75 10.6447 39.75 21C39.75 31.3553 31.3553 39.75 21 39.75ZM21 25.1667C17.5482 25.1667 14.75 22.3684 14.75 18.9167C14.75 15.4649 17.5482 12.6667 21 12.6667C24.4518 12.6667 27.25 15.4649 27.25 18.9167C27.25 22.3684 24.4518 25.1667 21 25.1667Z" stroke="#1E1E1E" stroke-width="4" stroke-linecap="round" stroke-linejoin="round"/>
</svg>
